<svg width="138" height="138" viewBox="0 0 138 138" fill="none" xmlns="http://www.w3.org/2000/svg">
<rect x="11.5" width="11.5" height="11.5" fill="#EFF3F6"/>
<rect x="34.5" width="11.5" height="11.5" fill="#EFF3F6"/>
<rect x="57.5" width="11.5" height="11.5" fill="#EFF3F6"/>
<rect y="11.5" width="11.5" height="11.5" fill="#EFF3F6"/>
<rect x="23" y="11.5" width="11.5" height="11.5" fill="#EFF3F6"/>
<rect x="46" y="11.5" width="11.5" height="11.5" fill="#EFF3F6"/>
<rect x="69" y="11.5" width="11.5" height="11.5" fill="#EFF3F6"/>
<rect x="11.5" y="23" width="11.5" height="11.5" fill="#EFF3F6"/>
<rect x="34.5" y="23" width="11.5" height="11.5" fill="#EFF3F6"/>
<rect x="57.5" y="23" width="11.5" height="11.5" fill="#EFF3F6"/>
<rect y="34.5" width="11.5" height="11.5" fill="#EFF3F6"/>
<rect x="23" y="34.5" width="11.5" height="11.5" fill="#EFF3F6"/>
<rect x="46" y="34.5" width="11.5" height="11.5" fill="#EFF3F6"/>
<rect x="69" y="34.5" width="11.5" height="11.5" fill="#EFF3F6"/>
<rect x="11.5" y="46" width="11.5" height="11.5" fill="#EFF3F6"/>
<rect x="34.5" y="46" width="11.5" height="11.5" fill="#EFF3F6"/>
<rect x="57.5" y="46" width="11.5" height="11.5" fill="#EFF3F6"/>
<rect y="57.5" width="11.5" height="11.5" fill="#EFF3F6"/>
<rect x="23" y="57.5" width="11.5" height="11.5" fill="#EFF3F6"/>
<rect x="46" y="57.5" width="11.5" height="11.5" fill="#EFF3F6"/>
<rect x="69" y="57.5" width="11.5" height="11.5" fill="#EFF3F6"/>
<rect x="11.5" y="69" width="11.5" height="11.5" fill="#EFF3F6"/>
<rect x="34.5" y="69" width="11.5" height="11.5" fill="#EFF3F6"/>
<rect x="57.5" y="69" width="11.5" height="11.5" fill="#EFF3F6"/>
<rect x="92" y="80.5" width="11.5" height="11.5" fill="#EFF3F6"/>
<rect x="115" y="80.5" width="11.5" height="11.5" fill="#EFF3F6"/>
<rect x="80.5" y="92" width="11.5" height="11.5" fill="#EFF3F6"/>
<rect x="103.5" y="92" width="11.5" height="11.5" fill="#EFF3F6"/>
<rect x="126.5" y="92" width="11.5" height="11.5" fill="#EFF3F6"/>
<rect x="92" y="103.5" width="11.5" height="11.5" fill="#EFF3F6"/>
<rect x="115" y="103.5" width="11.5" height="11.5" fill="#EFF3F6"/>
<rect x="80.5" y="115" width="11.5" height="11.5" fill="#EFF3F6"/>
<rect x="103.5" y="115" width="11.5" height="11.5" fill="#EFF3F6"/>
<rect x="126.5" y="115" width="11.5" height="11.5" fill="#EFF3F6"/>
<rect x="92" y="126.5" width="11.5" height="11.5" fill="#EFF3F6"/>
<rect x="115" y="126.5" width="11.5" height="11.5" fill="#EFF3F6"/>
<rect x="126.5" y="69" width="11.5" height="11.5" transform="rotate(-180 126.5 69)" fill="#EFF3F6"/>
<rect x="103.5" y="69" width="11.5" height="11.5" transform="rotate(-180 103.5 69)" fill="#EFF3F6"/>
<rect x="138" y="57.5" width="11.5" height="11.5" transform="rotate(-180 138 57.5)" fill="#EFF3F6"/>
<rect x="115" y="57.5" width="11.5" height="11.5" transform="rotate(-180 115 57.5)" fill="#EFF3F6"/>
<rect x="92" y="57.5" width="11.5" height="11.5" transform="rotate(-180 92 57.5)" fill="#EFF3F6"/>
<rect x="138" y="80.5" width="11.5" height="11.5" transform="rotate(-180 138 80.5)" fill="#EFF3F6"/>
<rect x="115" y="80.5" width="11.5" height="11.5" transform="rotate(-180 115 80.5)" fill="#EFF3F6"/>
<rect x="92" y="80.5" width="11.5" height="11.5" transform="rotate(-180 92 80.5)" fill="#EFF3F6"/>
<rect x="126.5" y="46" width="11.5" height="11.5" transform="rotate(-180 126.5 46)" fill="#EFF3F6"/>
<rect x="103.5" y="46" width="11.5" height="11.5" transform="rotate(-180 103.5 46)" fill="#EFF3F6"/>
<rect x="138" y="34.5" width="11.5" height="11.5" transform="rotate(-180 138 34.5)" fill="#EFF3F6"/>
<rect x="115" y="34.5" width="11.5" height="11.5" transform="rotate(-180 115 34.5)" fill="#EFF3F6"/>
<rect x="92" y="34.5" width="11.5" height="11.5" transform="rotate(-180 92 34.5)" fill="#EFF3F6"/>
<rect x="126.5" y="23" width="11.5" height="11.5" transform="rotate(-180 126.5 23)" fill="#EFF3F6"/>
<rect x="103.5" y="23" width="11.5" height="11.5" transform="rotate(-180 103.5 23)" fill="#EFF3F6"/>
<rect x="138" y="11.5" width="11.5" height="11.5" transform="rotate(-180 138 11.5)" fill="#EFF3F6"/>
<rect x="115" y="11.5" width="11.5" height="11.5" transform="rotate(-180 115 11.5)" fill="#EFF3F6"/>
<rect x="92" y="11.5" width="11.5" height="11.5" transform="rotate(-180 92 11.5)" fill="#EFF3F6"/>
<rect x="80.5" y="138" width="11.5" height="11.5" transform="rotate(-180 80.5 138)" fill="#EFF3F6"/>
<rect x="57.5" y="138" width="11.5" height="11.5" transform="rotate(-180 57.5 138)" fill="#EFF3F6"/>
<rect x="34.5" y="138" width="11.5" height="11.5" transform="rotate(-180 34.5 138)" fill="#EFF3F6"/>
<rect x="11.5" y="138" width="11.5" height="11.5" transform="rotate(-180 11.5 138)" fill="#EFF3F6"/>
<rect x="69" y="126.5" width="11.5" height="11.5" transform="rotate(-180 69 126.5)" fill="#EFF3F6"/>
<rect x="46" y="126.5" width="11.5" height="11.5" transform="rotate(-180 46 126.5)" fill="#EFF3F6"/>
<rect x="23" y="126.5" width="11.5" height="11.5" transform="rotate(-180 23 126.5)" fill="#EFF3F6"/>
<rect x="80.5" y="115" width="11.5" height="11.5" transform="rotate(-180 80.5 115)" fill="#EFF3F6"/>
<rect x="57.5" y="115" width="11.5" height="11.5" transform="rotate(-180 57.5 115)" fill="#EFF3F6"/>
<rect x="34.5" y="115" width="11.5" height="11.5" transform="rotate(-180 34.5 115)" fill="#EFF3F6"/>
<rect x="11.5" y="115" width="11.5" height="11.5" transform="rotate(-180 11.5 115)" fill="#EFF3F6"/>
<rect x="69" y="103.5" width="11.5" height="11.5" transform="rotate(-180 69 103.5)" fill="#EFF3F6"/>
<rect x="46" y="103.5" width="11.5" height="11.5" transform="rotate(-180 46 103.5)" fill="#EFF3F6"/>
<rect x="23" y="103.5" width="11.5" height="11.5" transform="rotate(-180 23 103.5)" fill="#EFF3F6"/>
<rect x="80.5" y="92" width="11.5" height="11.5" transform="rotate(-180 80.5 92)" fill="#EFF3F6"/>
<rect x="57.5" y="92" width="11.5" height="11.5" transform="rotate(-180 57.5 92)" fill="#EFF3F6"/>
<rect x="34.5" y="92" width="11.5" height="11.5" transform="rotate(-180 34.5 92)" fill="#EFF3F6"/>
<rect x="11.5" y="92" width="11.5" height="11.5" transform="rotate(-180 11.5 92)" fill="#EFF3F6"/>
</svg>
