<svg width="156" height="102" viewBox="0 0 156 102" fill="none" xmlns="http://www.w3.org/2000/svg">
<rect width="156" height="102" fill="white"/>
<rect x="94.75" y="20.75" width="60.5" height="60.5" rx="30.25" fill="white"/>
<path d="M129.925 59.8642V57.8945C129.925 56.8497 129.51 55.8477 128.771 55.1089C128.032 54.3701 127.03 53.9551 125.985 53.9551H118.106C117.062 53.9551 116.06 54.3701 115.321 55.1089C114.582 55.8477 114.167 56.8497 114.167 57.8945V59.8642" stroke="#2D3032" stroke-width="1.84167" stroke-linecap="round" stroke-linejoin="round"/>
<path d="M122.045 50.0155C124.221 50.0155 125.985 48.2518 125.985 46.0761C125.985 43.9004 124.221 42.1367 122.045 42.1367C119.87 42.1367 118.106 43.9004 118.106 46.0761C118.106 48.2518 119.87 50.0155 122.045 50.0155Z" stroke="#2D3032" stroke-width="1.84167" stroke-linecap="round" stroke-linejoin="round"/>
<path d="M135.833 59.8641V57.8944C135.832 57.0215 135.542 56.1736 135.007 55.4838C134.472 54.7939 133.724 54.3012 132.878 54.083" stroke="#2D3032" stroke-width="1.84167" stroke-linecap="round" stroke-linejoin="round"/>
<path d="M128.939 42.2646C129.787 42.4816 130.538 42.9744 131.074 43.6654C131.611 44.3564 131.902 45.2062 131.902 46.0809C131.902 46.9556 131.611 47.8055 131.074 48.4965C130.538 49.1874 129.787 49.6803 128.939 49.8972" stroke="#2D3032" stroke-width="1.84167" stroke-linecap="round" stroke-linejoin="round"/>
<rect x="94.75" y="20.75" width="60.5" height="60.5" rx="30.25" stroke="#E9E9E9" stroke-width="1.5"/>
<rect x="0.653226" y="25.6532" width="50.6936" height="50.6936" rx="25.3468" fill="white"/>
<path fill-rule="evenodd" clip-rule="evenodd" d="M19.808 53.9749C20.5659 53.217 21.5939 52.7912 22.6658 52.7912H29.3322C30.4041 52.7912 31.4321 53.217 32.19 53.9749C32.948 54.7329 33.3738 55.7608 33.3738 56.8327V58.4993C33.3738 58.8905 33.0566 59.2077 32.6654 59.2077C32.2742 59.2077 31.9571 58.8905 31.9571 58.4993V56.8327C31.9571 56.1366 31.6806 55.4689 31.1883 54.9767C30.696 54.4844 30.0284 54.2078 29.3322 54.2078H22.6658C21.9697 54.2078 21.302 54.4844 20.8097 54.9767C20.3175 55.4689 20.0409 56.1366 20.0409 56.8327V58.4993C20.0409 58.8905 19.7238 59.2077 19.3326 59.2077C18.9414 59.2077 18.6243 58.8905 18.6243 58.4993V56.8327C18.6243 55.7608 19.0501 54.7329 19.808 53.9749Z" fill="#2D3032"/>
<path fill-rule="evenodd" clip-rule="evenodd" d="M25.9991 44.2087C24.5495 44.2087 23.3743 45.3839 23.3743 46.8335C23.3743 48.2832 24.5495 49.4584 25.9991 49.4584C27.4488 49.4584 28.624 48.2832 28.624 46.8335C28.624 45.3839 27.4488 44.2087 25.9991 44.2087ZM21.9576 46.8335C21.9576 44.6015 23.7671 42.792 25.9991 42.792C28.2312 42.792 30.0407 44.6015 30.0407 46.8335C30.0407 49.0656 28.2312 50.8751 25.9991 50.8751C23.7671 50.8751 21.9576 49.0656 21.9576 46.8335Z" fill="#2D3032"/>
<rect x="0.653226" y="25.6532" width="50.6936" height="50.6936" rx="25.3468" stroke="#E9E9E9" stroke-width="1.30645"/>
<rect x="92.5" y="60.5" width="23" height="23" rx="11.5" fill="#FF4949"/>
<path d="M101.001 69.001L107 74.9998" stroke="white" stroke-width="1.67917" stroke-linecap="round"/>
<path d="M101.001 74.999L107 69.0002" stroke="white" stroke-width="1.67917" stroke-linecap="round"/>
<rect x="92.5" y="60.5" width="23" height="23" rx="11.5" stroke="white" stroke-width="3"/>
<path opacity="0.5" d="M46 74.0003C49.6178 79.8793 63.8703 86.9853 73.2073 75.8128C75.3457 73.254 76.6187 70.0011 76.586 66.6666C76.531 61.0541 73.9981 56.0158 69.7841 54.8471C65.3841 53.6269 61.2293 58.2469 61.3477 62.8114C61.4969 68.5664 67.4582 72.959 91 72" stroke="#A1A5AA" stroke-width="1.3" stroke-linecap="round" stroke-dasharray="4 4"/>
</svg>
