<svg width="18" height="18" viewBox="0 0 18 18" fill="none" xmlns="http://www.w3.org/2000/svg">
<path d="M14.6438 14.6723H3.35651C3.05715 14.6723 2.77006 14.5534 2.55838 14.3417C2.3467 14.13 2.22778 13.8429 2.22778 13.5436V3.35529C2.22778 3.05593 2.3467 2.76884 2.55838 2.55716C2.77006 2.34548 3.05715 2.22656 3.35651 2.22656H14.6438C14.9432 2.22656 15.2303 2.34548 15.4419 2.55716C15.6536 2.76884 15.7725 3.05593 15.7725 3.35529V13.5436C15.7725 13.8429 15.6536 14.13 15.4419 14.3417C15.2303 14.5534 14.9432 14.6723 14.6438 14.6723Z" fill="#FF8F00"/>
<path d="M14.6438 15.7729H3.35651C3.05715 15.7729 2.77006 15.654 2.55838 15.4423C2.3467 15.2306 2.22778 14.9435 2.22778 14.6442V5.2381C2.22778 4.93875 2.3467 4.65165 2.55838 4.43997C2.77006 4.22829 3.05715 4.10938 3.35651 4.10938H14.6438C14.9432 4.10938 15.2303 4.22829 15.4419 4.43997C15.6536 4.65165 15.7725 4.93875 15.7725 5.2381V14.6442C15.7725 14.9435 15.6536 15.2306 15.4419 15.4423C15.2303 15.654 14.9432 15.7729 14.6438 15.7729Z" fill="#DD2C00"/>
<path d="M5.61406 7.11825C6.02964 7.11825 6.36654 6.78135 6.36654 6.36577C6.36654 5.95018 6.02964 5.61328 5.61406 5.61328C5.19847 5.61328 4.86157 5.95018 4.86157 6.36577C4.86157 6.78135 5.19847 7.11825 5.61406 7.11825Z" fill="#B71C1C"/>
<path d="M12.386 7.11825C12.8016 7.11825 13.1385 6.78135 13.1385 6.36577C13.1385 5.95018 12.8016 5.61328 12.386 5.61328C11.9704 5.61328 11.6335 5.95018 11.6335 6.36577C11.6335 6.78135 11.9704 7.11825 12.386 7.11825Z" fill="#B71C1C"/>
<path d="M12.3864 6.36719C12.3864 8.23749 10.8705 9.75337 9.0002 9.75337C7.1299 9.75337 5.61401 8.23749 5.61401 6.36719" stroke="white" stroke-width="0.752486" stroke-miterlimit="10" stroke-linecap="round"/>
</svg>
