<svg width="18" height="18" viewBox="0 0 18 18" fill="none" xmlns="http://www.w3.org/2000/svg">
<path d="M13.5869 13.0506C8.41389 15.5125 5.20346 13.4527 3.14837 12.2016C3.0212 12.1228 2.80505 12.2201 2.99259 12.4355C3.67724 13.2656 5.921 15.2666 8.84976 15.2666C11.7805 15.2666 13.5241 13.6674 13.7422 13.3884C13.9588 13.1118 13.8058 12.9592 13.5868 13.0506H13.5869ZM15.0397 12.2483C14.9008 12.0674 14.195 12.0337 13.7508 12.0882C13.306 12.1412 12.6382 12.4131 12.6963 12.5764C12.7261 12.6375 12.7869 12.6101 13.0925 12.5826C13.3989 12.552 14.2574 12.4437 14.4363 12.6775C14.616 12.913 14.1625 14.0346 14.0796 14.2155C13.9996 14.3964 14.1102 14.4431 14.2605 14.3226C14.4088 14.2022 14.6772 13.8903 14.8573 13.4489C15.0362 13.0051 15.1453 12.386 15.0397 12.2483H15.0397Z" fill="#FF9900"/>
<path fill-rule="evenodd" clip-rule="evenodd" d="M10.1083 8.02816C10.1083 8.67413 10.1247 9.21284 9.79817 9.7865C9.53464 10.2529 9.1172 10.5398 8.6508 10.5398C8.01412 10.5398 7.64333 10.0547 7.64333 9.33878C7.64333 7.92552 8.90961 7.66902 10.1083 7.66902V8.02816ZM11.7804 12.0696C11.6708 12.1676 11.5122 12.1746 11.3886 12.1093C10.8383 11.6522 10.7403 11.44 10.4372 11.0039C9.52766 11.932 8.884 12.2095 7.70399 12.2095C6.30941 12.2095 5.22266 11.349 5.22266 9.62561C5.22266 8.28004 5.95263 7.36351 6.99033 6.9158C7.89054 6.5193 9.14753 6.44935 10.1083 6.33978V6.12521C10.1083 5.73107 10.1386 5.26467 9.90779 4.92421C9.70487 4.6187 9.31776 4.49276 8.97725 4.49276C8.34529 4.49276 7.78092 4.8169 7.64333 5.48853C7.61531 5.63782 7.50574 5.78475 7.3565 5.79173L5.74736 5.61919C5.61213 5.58881 5.46289 5.47924 5.5002 5.27165C5.87098 3.32209 7.63163 2.73438 9.20809 2.73438C10.015 2.73438 11.0691 2.94894 11.7057 3.55996C12.5127 4.31319 12.4357 5.3183 12.4357 6.41204V8.99596C12.4357 9.77254 12.7575 10.113 13.0606 10.5328C13.1679 10.682 13.1913 10.8617 13.056 10.9735C12.7178 11.2557 12.1162 11.7804 11.785 12.0743L11.7804 12.0696" fill="black"/>
<path d="M13.5869 13.0506C8.41389 15.5125 5.20346 13.4527 3.14837 12.2016C3.0212 12.1228 2.80505 12.2201 2.99259 12.4355C3.67724 13.2656 5.921 15.2666 8.84976 15.2666C11.7805 15.2666 13.5241 13.6674 13.7422 13.3884C13.9588 13.1118 13.8058 12.9592 13.5868 13.0506H13.5869ZM15.0397 12.2483C14.9008 12.0674 14.195 12.0337 13.7508 12.0882C13.306 12.1412 12.6382 12.4131 12.6963 12.5764C12.7261 12.6375 12.7869 12.6101 13.0925 12.5826C13.3989 12.552 14.2574 12.4437 14.4363 12.6775C14.616 12.913 14.1625 14.0346 14.0796 14.2155C13.9996 14.3964 14.1102 14.4431 14.2605 14.3226C14.4088 14.2022 14.6772 13.8903 14.8573 13.4489C15.0362 13.0051 15.1453 12.386 15.0397 12.2483H15.0397Z" fill="#F58F00"/>
<path fill-rule="evenodd" clip-rule="evenodd" d="M10.1083 8.02816C10.1083 8.67413 10.1247 9.21284 9.79817 9.7865C9.53464 10.2529 9.1172 10.5398 8.6508 10.5398C8.01412 10.5398 7.64333 10.0547 7.64333 9.33878C7.64333 7.92552 8.90961 7.66902 10.1083 7.66902V8.02816ZM11.7804 12.0696C11.6708 12.1676 11.5122 12.1746 11.3886 12.1093C10.8383 11.6522 10.7403 11.44 10.4372 11.0039C9.52766 11.932 8.884 12.2095 7.70399 12.2095C6.30941 12.2095 5.22266 11.349 5.22266 9.62561C5.22266 8.28004 5.95263 7.36351 6.99033 6.9158C7.89054 6.5193 9.14753 6.44935 10.1083 6.33978V6.12521C10.1083 5.73107 10.1386 5.26467 9.90779 4.92421C9.70487 4.6187 9.31776 4.49276 8.97725 4.49276C8.34529 4.49276 7.78092 4.8169 7.64333 5.48853C7.61531 5.63782 7.50574 5.78475 7.3565 5.79173L5.74736 5.61919C5.61213 5.58881 5.46289 5.47924 5.5002 5.27165C5.87098 3.32209 7.63163 2.73438 9.20809 2.73438C10.015 2.73438 11.0691 2.94894 11.7057 3.55996C12.5127 4.31319 12.4357 5.3183 12.4357 6.41204V8.99596C12.4357 9.77254 12.7575 10.113 13.0606 10.5328C13.1679 10.682 13.1913 10.8617 13.056 10.9735C12.7178 11.2557 12.1162 11.7804 11.785 12.0743L11.7804 12.0696" fill="black"/>
</svg>
