<svg width="42" height="42" viewBox="0 0 42 42" fill="none" xmlns="http://www.w3.org/2000/svg">
<path d="M6 1.75C5.56953 1.75 5.15531 1.81376 4.76555 1.93185C4.36913 2.05195 3.95041 1.82795 3.8303 1.43153C3.7102 1.03511 3.9342 0.61639 4.33062 0.496286C4.85985 0.335943 5.42057 0.25 6 0.25H7.40625C7.82046 0.25 8.15625 0.585786 8.15625 1C8.15625 1.41421 7.82046 1.75 7.40625 1.75H6Z" fill="#CDCDCD"/>
<path d="M11.3438 1C11.3438 0.585786 11.6795 0.25 12.0938 0.25H14.9062C15.3205 0.25 15.6562 0.585786 15.6562 1C15.6562 1.41421 15.3205 1.75 14.9062 1.75H12.0938C11.6795 1.75 11.3438 1.41421 11.3438 1Z" fill="#CDCDCD"/>
<path d="M18.8438 1C18.8438 0.585786 19.1795 0.25 19.5938 0.25H22.4062C22.8205 0.25 23.1562 0.585786 23.1562 1C23.1562 1.41421 22.8205 1.75 22.4062 1.75H19.5938C19.1795 1.75 18.8438 1.41421 18.8438 1Z" fill="#CDCDCD"/>
<path d="M26.3438 1C26.3438 0.585786 26.6795 0.25 27.0938 0.25H29.9062C30.3205 0.25 30.6562 0.585786 30.6562 1C30.6562 1.41421 30.3205 1.75 29.9062 1.75H27.0938C26.6795 1.75 26.3438 1.41421 26.3438 1Z" fill="#CDCDCD"/>
<path d="M33.8438 1C33.8438 0.585786 34.1795 0.25 34.5938 0.25H36C36.5794 0.25 37.1401 0.335943 37.6694 0.496286C38.0658 0.61639 38.2898 1.03511 38.1697 1.43153C38.0496 1.82795 37.6309 2.05195 37.2344 1.93185C36.8447 1.81376 36.4305 1.75 36 1.75H34.5938C34.1795 1.75 33.8438 1.41421 33.8438 1Z" fill="#CDCDCD"/>
<path d="M1.43153 3.8303C1.82795 3.95041 2.05195 4.36913 1.93185 4.76555C1.81376 5.15531 1.75 5.56953 1.75 6V7.40625C1.75 7.82046 1.41421 8.15625 1 8.15625C0.585786 8.15625 0.25 7.82046 0.25 7.40625V6C0.25 5.42057 0.335943 4.85985 0.496286 4.33062C0.61639 3.9342 1.03511 3.7102 1.43153 3.8303Z" fill="#CDCDCD"/>
<path d="M40.5685 3.8303C40.9649 3.7102 41.3836 3.9342 41.5037 4.33062C41.6641 4.85985 41.75 5.42057 41.75 6V7.40625C41.75 7.82046 41.4142 8.15625 41 8.15625C40.5858 8.15625 40.25 7.82046 40.25 7.40625V6C40.25 5.56953 40.1862 5.15531 40.0682 4.76555C39.9481 4.36913 40.172 3.95041 40.5685 3.8303Z" fill="#CDCDCD"/>
<path d="M1 11.3438C1.41421 11.3438 1.75 11.6795 1.75 12.0938V14.9062C1.75 15.3205 1.41421 15.6562 1 15.6562C0.585786 15.6562 0.25 15.3205 0.25 14.9062V12.0938C0.25 11.6795 0.585786 11.3438 1 11.3438Z" fill="#CDCDCD"/>
<path d="M41 11.3438C41.4142 11.3438 41.75 11.6795 41.75 12.0938V14.9062C41.75 15.3205 41.4142 15.6562 41 15.6562C40.5858 15.6562 40.25 15.3205 40.25 14.9062V12.0938C40.25 11.6795 40.5858 11.3438 41 11.3438Z" fill="#CDCDCD"/>
<path d="M1 18.8438C1.41421 18.8438 1.75 19.1795 1.75 19.5938V22.4062C1.75 22.8205 1.41421 23.1562 1 23.1562C0.585786 23.1562 0.25 22.8205 0.25 22.4062V19.5938C0.25 19.1795 0.585786 18.8438 1 18.8438Z" fill="#CDCDCD"/>
<path d="M41 18.8438C41.4142 18.8438 41.75 19.1795 41.75 19.5938V22.4062C41.75 22.8205 41.4142 23.1562 41 23.1562C40.5858 23.1562 40.25 22.8205 40.25 22.4062V19.5938C40.25 19.1795 40.5858 18.8438 41 18.8438Z" fill="#CDCDCD"/>
<path d="M1 26.3438C1.41421 26.3438 1.75 26.6795 1.75 27.0938V29.9062C1.75 30.3205 1.41421 30.6562 1 30.6562C0.585786 30.6562 0.25 30.3205 0.25 29.9062V27.0938C0.25 26.6795 0.585786 26.3438 1 26.3438Z" fill="#CDCDCD"/>
<path d="M41 26.3438C41.4142 26.3438 41.75 26.6795 41.75 27.0938V29.9062C41.75 30.3205 41.4142 30.6562 41 30.6562C40.5858 30.6562 40.25 30.3205 40.25 29.9062V27.0938C40.25 26.6795 40.5858 26.3438 41 26.3438Z" fill="#CDCDCD"/>
<path d="M1 33.8438C1.41421 33.8438 1.75 34.1795 1.75 34.5938V36C1.75 36.4305 1.81376 36.8447 1.93185 37.2344C2.05195 37.6309 1.82795 38.0496 1.43153 38.1697C1.03511 38.2898 0.61639 38.0658 0.496286 37.6694C0.335943 37.1401 0.25 36.5794 0.25 36V34.5938C0.25 34.1795 0.585786 33.8438 1 33.8438Z" fill="#CDCDCD"/>
<path d="M41 33.8438C41.4142 33.8438 41.75 34.1795 41.75 34.5938V36C41.75 36.5794 41.6641 37.1401 41.5037 37.6694C41.3836 38.0658 40.9649 38.2898 40.5685 38.1697C40.172 38.0496 39.9481 37.6309 40.0682 37.2344C40.1862 36.8447 40.25 36.4305 40.25 36V34.5938C40.25 34.1795 40.5858 33.8438 41 33.8438Z" fill="#CDCDCD"/>
<path d="M3.8303 40.5685C3.95041 40.172 4.36913 39.9481 4.76555 40.0682C5.15531 40.1862 5.56953 40.25 6 40.25H7.40625C7.82046 40.25 8.15625 40.5858 8.15625 41C8.15625 41.4142 7.82046 41.75 7.40625 41.75H6C5.42057 41.75 4.85985 41.6641 4.33062 41.5037C3.9342 41.3836 3.7102 40.9649 3.8303 40.5685Z" fill="#CDCDCD"/>
<path d="M38.1697 40.5685C38.2898 40.9649 38.0658 41.3836 37.6694 41.5037C37.1401 41.6641 36.5794 41.75 36 41.75H34.5938C34.1795 41.75 33.8438 41.4142 33.8438 41C33.8438 40.5858 34.1795 40.25 34.5938 40.25H36C36.4305 40.25 36.8447 40.1862 37.2344 40.0682C37.6309 39.9481 38.0496 40.172 38.1697 40.5685Z" fill="#CDCDCD"/>
<path d="M11.3438 41C11.3438 40.5858 11.6795 40.25 12.0938 40.25H14.9062C15.3205 40.25 15.6562 40.5858 15.6562 41C15.6562 41.4142 15.3205 41.75 14.9062 41.75H12.0938C11.6795 41.75 11.3438 41.4142 11.3438 41Z" fill="#CDCDCD"/>
<path d="M18.8438 41C18.8438 40.5858 19.1795 40.25 19.5938 40.25H22.4062C22.8205 40.25 23.1562 40.5858 23.1562 41C23.1562 41.4142 22.8205 41.75 22.4062 41.75H19.5938C19.1795 41.75 18.8438 41.4142 18.8438 41Z" fill="#CDCDCD"/>
<path d="M26.3438 41C26.3438 40.5858 26.6795 40.25 27.0938 40.25H29.9062C30.3205 40.25 30.6562 40.5858 30.6562 41C30.6562 41.4142 30.3205 41.75 29.9062 41.75H27.0938C26.6795 41.75 26.3438 41.4142 26.3438 41Z" fill="#CDCDCD"/>
<path d="M21 13.15C21.4694 13.15 21.85 13.5306 21.85 14V20.15H28C28.4694 20.15 28.85 20.5306 28.85 21C28.85 21.4695 28.4694 21.85 28 21.85H21.85V28C21.85 28.4695 21.4694 28.85 21 28.85C20.5306 28.85 20.15 28.4695 20.15 28V21.85H14C13.5306 21.85 13.15 21.4695 13.15 21C13.15 20.5306 13.5306 20.15 14 20.15H20.15V14C20.15 13.5306 20.5306 13.15 21 13.15Z" fill="#CDCDCD"/>
</svg>
