<svg width="30" height="30" viewBox="0 0 30 30" fill="none" xmlns="http://www.w3.org/2000/svg">
<rect width="30" height="30" fill="white"/>
<path d="M19.521 10.4468C19.521 10.1154 19.7896 9.8468 20.121 9.8468H21.7119C22.0432 9.8468 22.3119 10.1154 22.3119 10.4468C22.3119 10.7782 22.0432 11.0468 21.7119 11.0468H20.121C19.7896 11.0468 19.521 10.7782 19.521 10.4468Z" fill="#3E4850"/>
<path fill-rule="evenodd" clip-rule="evenodd" d="M18.8646 0.566618C18.854 0.566337 18.8434 0.566335 18.8328 0.566618H17.1584C17.1497 0.56643 17.1411 0.566431 17.1325 0.566618H14.5556C14.2105 0.566618 13.8827 0.717213 13.6579 0.978963L11.7112 3.24551C11.6178 3.35432 11.5664 3.493 11.5664 3.63643V12.2499C11.5664 12.9034 12.0962 13.4332 12.7497 13.4332H23.2497C23.9033 13.4332 24.4331 12.9034 24.4331 12.2499V3.63643C24.4331 3.493 24.3817 3.35432 24.2882 3.24551L22.3416 0.978963C22.1168 0.717213 21.789 0.566618 21.4439 0.566618H18.8646ZM16.3791 1.76662H14.5632L13.4726 3.03643H16.0645L16.3791 1.76662ZM15.934 4.23643H12.7664V12.2332H23.2331V4.23643H20.0634V5.88621C20.0634 6.53975 19.5336 7.06955 18.88 7.06955H17.1173C16.4638 7.06955 15.934 6.53975 15.934 5.88621V4.23643ZM18.8634 4.23643H17.134V5.86955H18.8634V4.23643ZM18.6956 3.03643H17.3008L17.6154 1.76662H18.3794L18.6956 3.03643ZM19.9323 3.03643L19.616 1.76662H21.4363L22.5268 3.03643H19.9323Z" fill="#3E4850"/>
<path fill-rule="evenodd" clip-rule="evenodd" d="M21.7242 16.3073L19.4788 18.4949C19.3265 18.6386 19.252 18.8217 19.2618 19.0099C19.2713 19.1907 19.3568 19.3484 19.4713 19.46C19.586 19.5717 19.7449 19.6521 19.9234 19.661C20.1083 19.6702 20.292 19.6012 20.4395 19.4527L22.6849 17.2651C23.0072 16.9511 23.5175 17.0157 23.7384 17.2541C23.8995 17.4281 23.9395 17.6123 23.9172 17.7974C23.8935 17.994 23.7971 18.1972 23.6735 18.3681C22.9309 19.3951 21.2978 21.696 20.42 22.9346C19.7952 23.8162 19.0648 24.2208 18.0986 24.2208H11.5829C10.9255 24.2208 10.4443 24.4527 10.0781 24.7215L5.16611 19.9359C4.8899 19.6668 4.47151 19.6755 4.20408 19.9357L1.90374 22.174C1.63217 22.4378 1.63245 22.8694 1.90398 23.1332L8.03811 29.1073C8.30393 29.3647 8.73065 29.3642 8.99647 29.1068L11.2969 26.8685C11.5684 26.6047 11.5681 26.1724 11.2966 25.9087L11.0586 25.6768C11.0798 25.6657 11.1013 25.6556 11.1233 25.6463C11.2353 25.5991 11.3771 25.5676 11.5829 25.5676H18.0986C19.5246 25.5676 20.7111 24.8752 21.5398 23.706C22.4174 22.4678 24.06 20.1646 24.7864 19.1487C25.4666 18.1976 25.5009 17.0598 24.7073 16.3048C23.8531 15.4924 22.5486 15.5041 21.7242 16.3073ZM4.68495 21.3602L3.35792 22.6531L8.51849 27.6816L9.84551 26.3887L4.68495 21.3602Z" fill="#3E4850"/>
<path d="M6.06644 19.6169C6.78847 18.9399 7.74436 18.2461 9.28333 18.2461H17.3321C18.5454 18.2461 19.5485 19.2122 19.5485 20.4132C19.5485 21.6141 18.5454 22.5803 17.3321 22.5803H13.1179C12.1988 22.5907 12.1956 21.2231 13.1179 21.2334H17.3321C17.8175 21.2334 18.1819 20.8672 18.1819 20.4132C18.1819 19.9591 17.8175 19.5929 17.3321 19.5929H9.28333C8.71988 19.5929 8.30918 19.7017 7.96735 19.8729C7.62063 20.0466 7.32929 20.2918 7.00833 20.5928C6.85732 20.7358 6.67283 20.7992 6.48952 20.7857C6.31293 20.7726 6.15712 20.6899 6.04534 20.5767C5.9337 20.4637 5.85199 20.3058 5.84518 20.1265C5.83808 19.9396 5.9139 19.7584 6.06644 19.6169Z" fill="#3E4850"/>
<path d="M5.00039 6.3999C4.66902 6.3999 4.40039 6.66853 4.40039 6.9999C4.40039 7.33127 4.66902 7.5999 5.00039 7.5999H9.00039C9.33176 7.5999 9.60039 7.33127 9.60039 6.9999C9.60039 6.66853 9.33176 6.3999 9.00039 6.3999H5.00039Z" fill="#3E4850"/>
<path d="M4.40039 12.5995C4.40039 12.2681 4.66902 11.9995 5.00039 11.9995H9.00039C9.33176 11.9995 9.60039 12.2681 9.60039 12.5995C9.60039 12.9309 9.33176 13.1995 9.00039 13.1995H5.00039C4.66902 13.1995 4.40039 12.9309 4.40039 12.5995Z" fill="#3E4850"/>
<path d="M3.00039 9.19971C2.66902 9.19971 2.40039 9.46834 2.40039 9.79971C2.40039 10.1311 2.66902 10.3997 3.00039 10.3997L8.00039 10.3997C8.33176 10.3997 8.60039 10.1311 8.60039 9.79971C8.60039 9.46834 8.33176 9.19971 8.00039 9.19971L3.00039 9.19971Z" fill="#3E4850"/>
</svg>
