<svg width="60" height="60" viewBox="0 0 60 60" fill="none" xmlns="http://www.w3.org/2000/svg">
<path d="M35.0856 16.5C35.0291 16.9922 35 17.4927 35 18C35 18.5073 35.0291 19.0078 35.0856 19.5H13.8C12.5196 19.5 11.5 20.5346 11.5 21.75V44.25C11.5 45.4654 12.5196 46.5 13.8 46.5H44.2C45.4804 46.5 46.5 45.4654 46.5 44.25V30.9144C46.9922 30.9709 47.4927 31 48 31C48.5073 31 49.0078 30.9709 49.5 30.9144V44.25C49.5 47.1596 47.0996 49.5 44.2 49.5H13.8C10.9004 49.5 8.5 47.1596 8.5 44.25V21.75C8.5 18.8404 10.9004 16.5 13.8 16.5H35.0856Z" fill="#B4B9BE"/>
<path d="M38.207 26.5499C38.8829 27.3235 39.649 28.0163 40.4889 28.6118L29.864 36.1012C29.3458 36.4664 28.6539 36.4664 28.1356 36.1012L14.8356 26.7262C14.1585 26.2489 13.9965 25.313 14.4738 24.6359C14.9511 23.9588 15.8869 23.7968 16.564 24.2741L28.9998 33.0399L38.207 26.5499Z" fill="#B4B9BE"/>
<path d="M46.3133 14.6869C45.8642 14.2378 45.136 14.2378 44.6869 14.6869C44.2378 15.136 44.2378 15.8642 44.6869 16.3133L46.3738 18.0001L44.6869 19.6869C44.2378 20.136 44.2378 20.8642 44.6869 21.3133C45.136 21.7624 45.8642 21.7624 46.3133 21.3133L48.0001 19.6264L49.6869 21.3133C50.136 21.7624 50.8642 21.7624 51.3133 21.3133C51.7624 20.8642 51.7624 20.136 51.3133 19.6869L49.6264 18.0001L51.3133 16.3133C51.7624 15.8642 51.7624 15.136 51.3133 14.6869C50.8642 14.2378 50.136 14.2378 49.6869 14.6869L48.0001 16.3738L46.3133 14.6869Z" fill="#FF5B5B"/>
<path fill-rule="evenodd" clip-rule="evenodd" d="M58 18C58 23.5228 53.5228 28 48 28C42.4772 28 38 23.5228 38 18C38 12.4772 42.4772 8 48 8C53.5228 8 58 12.4772 58 18ZM55.5 18C55.5 22.1421 52.1421 25.5 48 25.5C43.8579 25.5 40.5 22.1421 40.5 18C40.5 13.8579 43.8579 10.5 48 10.5C52.1421 10.5 55.5 13.8579 55.5 18Z" fill="#FF5B5B"/>
</svg>
