<svg width="22" height="22" viewBox="0 0 22 22" fill="none" xmlns="http://www.w3.org/2000/svg">
<path d="M10.4656 1.04721C10.6883 0.610864 11.3117 0.610865 11.5344 1.04722L14.4585 6.77694C14.5457 6.94777 14.7093 7.06663 14.8987 7.09676L21.2516 8.10713C21.7354 8.18408 21.928 8.77705 21.5819 9.12368L17.0362 13.6752C16.9006 13.8109 16.8381 14.0032 16.868 14.1927L17.8702 20.5469C17.9466 21.0308 17.4422 21.3972 17.0055 21.1751L11.2721 18.2584C11.1011 18.1714 10.8989 18.1714 10.7279 18.2584L4.99448 21.1751C4.55784 21.3972 4.05343 21.0308 4.12975 20.5469L5.13198 14.1927C5.16186 14.0032 5.09937 13.8109 4.96384 13.6752L0.418137 9.12368C0.0719559 8.77705 0.264624 8.18408 0.748432 8.10713L7.10131 7.09676C7.29072 7.06663 7.45432 6.94777 7.5415 6.77694L10.4656 1.04721Z" fill="#FFC700"/>
</svg>
