<svg width="20" height="20" viewBox="0 0 20 20" fill="none" xmlns="http://www.w3.org/2000/svg">
<path d="M2.29183 16.875H17.7085C18.5139 16.875 19.1668 16.2221 19.1668 15.4167V4.58333C19.1668 3.77792 18.5139 3.125 17.7085 3.125H2.29183C1.48641 3.125 0.833496 3.77792 0.833496 4.58333V15.4167C0.833496 16.2221 1.48641 16.875 2.29183 16.875Z" fill="#E0E0E0"/>
<path d="M10.8335 16.875H17.7085C18.5139 16.875 19.1668 16.2221 19.1668 15.4167V4.58333C19.1668 3.77792 18.5139 3.125 17.7085 3.125H2.29183C1.48641 3.125 0.833496 3.77792 0.833496 4.58333L10.8335 16.875Z" fill="#D9D9D9"/>
<path d="M2.81055 16.8748H17.7085C18.5139 16.8748 19.1668 16.2219 19.1668 15.4165V4.7915L2.81055 16.8748Z" fill="#EEEEEE"/>
<path d="M10.7271 16.8748H17.7084C18.5138 16.8748 19.1667 16.2219 19.1667 15.4165V4.7915L7.82129 13.1732L10.7271 16.8748Z" fill="#E0E0E0"/>
<path d="M17.7085 3.95843H2.29183C1.48641 3.95843 0.833496 3.77802 0.833496 4.58343V15.4168C0.833496 16.2222 1.48641 16.8751 2.29183 16.8751H2.91683V5.0001H17.0835V16.8751H17.7085C18.5139 16.8751 19.1668 16.2222 19.1668 15.4168V4.58343C19.1668 3.77802 18.5139 3.95843 17.7085 3.95843Z" fill="#CA3737"/>
<path d="M17.7085 3.125H10.0002H2.29183C1.48641 3.125 0.833496 3.765 0.833496 4.58333C0.833496 5.08583 1.466 5.52417 1.466 5.52417L10.0002 11.565L18.5343 5.52458C18.5343 5.52458 19.1668 5.08583 19.1668 4.58375C19.1668 3.765 18.5139 3.125 17.7085 3.125Z" fill="#F5F5F5"/>
<path d="M18.0193 3.15918L10.0002 8.75001L1.981 3.15918C1.32516 3.2996 0.833496 3.87376 0.833496 4.58335C0.833496 5.08585 1.466 5.52418 1.466 5.52418L10.0002 11.565L18.5343 5.5246C18.5343 5.5246 19.1668 5.08585 19.1668 4.58376C19.1668 3.87376 18.6752 3.2996 18.0193 3.15918Z" fill="#E84F4B"/>
</svg>
