<svg width="24" height="24" viewBox="0 0 24 24" fill="none" xmlns="http://www.w3.org/2000/svg">
<path d="M8.57384 1.45345C5.85584 2.38345 3.53984 4.41745 2.24984 6.99145C1.79984 7.87945 1.47584 8.82145 1.27784 9.79945C0.785842 12.2235 1.12784 14.8095 2.24384 17.0175C2.96984 18.4575 4.01384 19.7415 5.27384 20.7435C6.46784 21.6915 7.85384 22.3995 9.32984 22.7895C11.1898 23.2875 13.1698 23.2755 15.0418 22.8495C16.7338 22.4595 18.3358 21.6495 19.6138 20.4735C20.9638 19.2315 21.9298 17.5995 22.4398 15.8415C22.9978 13.9275 23.0698 11.8815 22.7218 9.91345C19.2238 9.91345 15.7198 9.91345 12.2218 9.91345C12.2218 11.3655 12.2218 12.8175 12.2218 14.2695C14.2498 14.2695 16.2778 14.2695 18.3058 14.2695C18.0718 15.6615 17.2438 16.9335 16.0738 17.7195C15.3358 18.2175 14.4898 18.5355 13.6138 18.6915C12.7378 18.8415 11.8258 18.8595 10.9498 18.6855C10.0558 18.5055 9.20984 18.1335 8.46584 17.6115C7.27784 16.7775 6.37184 15.5595 5.90984 14.1855C5.43584 12.7875 5.42984 11.2335 5.90984 9.84145C6.24584 8.85745 6.79784 7.95145 7.52984 7.20745C8.42984 6.28345 9.59984 5.62345 10.8658 5.35345C11.9458 5.12545 13.0858 5.16745 14.1418 5.48545C15.0418 5.75545 15.8698 6.25345 16.5478 6.90145C17.2318 6.21745 17.9158 5.53345 18.5998 4.84945C18.9598 4.48345 19.3378 4.12945 19.6858 3.75145C18.6478 2.79145 17.4238 2.01745 16.0918 1.52545C13.6918 0.637453 10.9918 0.619453 8.57384 1.45345Z" fill="white"/>
<path d="M8.574 1.45219C10.986 0.618194 13.692 0.636194 16.092 1.51819C17.424 2.01019 18.642 2.77819 19.686 3.74419C19.338 4.12219 18.96 4.47619 18.6 4.84219C17.916 5.52619 17.232 6.21019 16.548 6.89419C15.87 6.24619 15.042 5.75419 14.142 5.47819C13.086 5.16019 11.946 5.11219 10.866 5.34619C9.606 5.61619 8.436 6.27619 7.53 7.20019C6.798 7.93819 6.246 8.85019 5.91 9.83419C4.692 8.88619 3.474 7.94419 2.25 6.99619C3.54 4.41619 5.856 2.38219 8.574 1.45219Z" fill="#EA4335"/>
<path d="M1.28338 9.79237C1.48138 8.82037 1.80538 7.87238 2.25538 6.98438C3.47338 7.93238 4.69138 8.87437 5.91538 9.82237C5.43538 11.2204 5.43538 12.7744 5.91538 14.1664C4.69738 15.1144 3.47938 16.0624 2.26138 17.0044C1.13338 14.8024 0.791384 12.2164 1.28338 9.79237Z" fill="#FBBC05"/>
<path d="M12.2218 9.90576C15.7198 9.90576 19.2238 9.90576 22.7218 9.90576C23.0698 11.8678 22.9918 13.9138 22.4398 15.8338C21.9298 17.5918 20.9638 19.2238 19.6138 20.4658C18.4318 19.5478 17.2498 18.6298 16.0678 17.7118C17.2378 16.9258 18.0658 15.6538 18.2998 14.2618C16.2718 14.2618 14.2438 14.2618 12.2158 14.2618C12.2218 12.8098 12.2218 11.3578 12.2218 9.90576Z" fill="#4285F4"/>
<path d="M2.25 17.0099C3.468 16.0679 4.686 15.1199 5.904 14.1719C6.372 15.5459 7.272 16.7639 8.46 17.5979C9.204 18.1199 10.056 18.4919 10.944 18.6719C11.82 18.8519 12.726 18.8279 13.608 18.6779C14.484 18.5219 15.33 18.2039 16.068 17.7059C17.25 18.6239 18.432 19.5419 19.614 20.4599C18.336 21.6419 16.734 22.4459 15.042 22.8359C13.17 23.2619 11.19 23.2739 9.33 22.7759C7.854 22.3859 6.468 21.6839 5.274 20.7299C4.02 19.7339 2.976 18.4499 2.25 17.0099Z" fill="#34A853"/>
</svg>
