<svg width="26" height="26" viewBox="0 0 26 26" fill="none" xmlns="http://www.w3.org/2000/svg">
<rect width="24" height="24" fill="white"/>
<path d="M3 3H19C20.1 3 21 3.9 21 5V17C21 18.1 20.1 19 19 19H3C1.9 19 1 18.1 1 17V5C1 3.9 1.9 3 3 3Z" stroke="#596B81" stroke-width="1.7" stroke-linecap="round" stroke-linejoin="round"/>
<path d="M18 7L12.7437 10.7545C11.7006 11.4996 10.2994 11.4996 9.25629 10.7545L4 7" stroke="#596B81" stroke-width="1.7" stroke-linecap="round" stroke-linejoin="round"/>
<rect x="11.15" y="11.15" width="13.7" height="13.7" rx="6.85" fill="#0075FF"/>
<path d="M18 15V18M18 21V18M18 18H21M18 18H15" stroke="white" stroke-width="1.7" stroke-linecap="round" stroke-linejoin="round"/>
<rect x="11.15" y="11.15" width="13.7" height="13.7" rx="6.85" stroke="white" stroke-width="1.7"/>
</svg>
