<svg width="40" height="40" viewBox="0 0 40 40" fill="none" xmlns="http://www.w3.org/2000/svg">
<g clip-path="url(#clip0)">
<path d="M9.0653 22.7191C7.56358 21.2174 7.56358 18.7826 9.0653 17.2809L23.3168 3.02944C24.7226 1.62355 27.002 1.62355 28.4079 3.02944V3.02944C29.8138 4.43533 29.8138 6.71472 28.4079 8.12061L11.7093 24.8193C11.5591 24.9694 11.3156 24.9694 11.1654 24.8193L9.0653 22.7191Z" fill="#2A8CFF"/>
<path d="M17.6926 21.7075C17.8427 21.5573 18.0862 21.5573 18.2364 21.7075L28.4297 31.9007C29.8355 33.3066 29.8355 35.586 28.4297 36.9919V36.9919C27.0238 38.3978 24.7444 38.3978 23.3385 36.9919L13.1452 26.7986C12.995 26.6485 12.995 26.405 13.1452 26.2548L17.6926 21.7075Z" fill="#FB005E"/>
<path d="M19.6723 20.2719C19.5221 20.1217 19.5221 19.8783 19.6723 19.7281L23.5238 15.8765C24.8937 14.5067 27.1146 14.5067 28.4845 15.8765V15.8765C29.9264 17.3185 29.9264 19.6563 28.4845 21.0983L24.7635 24.8193C24.6133 24.9694 24.3698 24.9694 24.2196 24.8193L19.6723 20.2719Z" fill="#FFC108"/>
</g>
<defs>
<clipPath id="clip0">
<rect width="40" height="40" fill="white"/>
</clipPath>
</defs>
</svg>
