<svg width="168" height="42" viewBox="0 0 168 42" fill="none" xmlns="http://www.w3.org/2000/svg">
<path fill-rule="evenodd" clip-rule="evenodd" d="M163.887 19.4599C163.435 19.2429 162.984 19.1336 162.533 19.1336C162.064 19.1336 161.655 19.2304 161.304 19.4224C160.953 19.6149 160.777 19.8618 160.777 20.1631C160.777 20.4481 160.923 20.6737 161.216 20.8407C161.508 21.0082 161.906 21.1589 162.407 21.2926L164.288 21.7446C165.542 22.0458 166.474 22.5271 167.085 23.1879C167.695 23.8492 168 24.6318 168 25.5356C168 26.0713 167.875 26.5814 167.624 27.0665C167.373 27.5522 167.017 27.9829 166.558 28.3598C166.098 28.7361 165.546 29.0336 164.903 29.2511C164.259 29.4681 163.544 29.5774 162.758 29.5774C161.956 29.5774 161.241 29.4768 160.614 29.2761C159.987 29.0749 159.443 28.8117 158.984 28.4854C158.524 28.1585 158.135 27.7822 157.817 27.3553C157.5 26.9289 157.257 26.4982 157.09 26.0626L160.024 24.8074C160.309 25.4437 160.689 25.9163 161.166 26.2258C161.642 26.5358 162.173 26.6902 162.758 26.6902C163.36 26.6902 163.837 26.5814 164.188 26.3639C164.539 26.1464 164.715 25.887 164.715 25.5857C164.715 25.2512 164.568 24.9793 164.275 24.7699C163.983 24.5605 163.477 24.3724 162.758 24.2049L161.028 23.8285C160.643 23.7448 160.246 23.611 159.836 23.4266C159.426 23.2428 159.054 23.0084 158.72 22.7235C158.386 22.439 158.11 22.0959 157.892 21.6945C157.675 21.2926 157.567 20.8244 157.567 20.2887C157.567 19.6861 157.696 19.1505 157.955 18.6817C158.214 18.2134 158.57 17.8159 159.021 17.4896C159.472 17.1633 160.003 16.912 160.614 16.7364C161.224 16.5607 161.88 16.4726 162.583 16.4726C163.753 16.4726 164.798 16.7027 165.718 17.1633C166.637 17.6234 167.314 18.3554 167.749 19.3598L164.915 20.5144C164.681 20.0293 164.338 19.678 163.887 19.4599ZM152.174 11H155.46V29.1755H152.174V11ZM150.268 23.778H141.013C141.08 24.2799 141.218 24.7112 141.427 25.0712C141.636 25.4312 141.895 25.7325 142.204 25.9745C142.514 26.2176 142.852 26.3933 143.221 26.502C143.588 26.6108 143.964 26.6652 144.349 26.6652C145.101 26.6652 145.724 26.4939 146.218 26.1507C146.71 25.8076 147.099 25.3763 147.383 24.8575L150.117 26.2133C149.549 27.2172 148.784 28.0291 147.823 28.6485C146.861 29.2674 145.686 29.5774 144.299 29.5774C143.362 29.5774 142.497 29.4143 141.703 29.0874C140.909 28.7611 140.219 28.3054 139.634 27.7197C139.048 27.134 138.593 26.4433 138.267 25.6482C137.941 24.8537 137.778 23.9792 137.778 23.0248C137.778 22.1383 137.936 21.297 138.255 20.5019C138.572 19.7074 139.015 19.0123 139.583 18.4185C140.152 17.8246 140.825 17.3515 141.602 16.9996C142.38 16.6483 143.237 16.4726 144.173 16.4726C145.159 16.4726 146.038 16.6358 146.807 16.9621C147.576 17.2884 148.22 17.7403 148.738 18.3179C149.256 18.8954 149.649 19.5774 149.917 20.3638C150.184 21.1507 150.318 22.0045 150.318 22.9247C150.318 23.0416 150.318 23.1422 150.318 23.226C150.301 23.326 150.293 23.4185 150.293 23.5017C150.276 23.586 150.268 23.6779 150.268 23.778ZM146.92 20.7151C146.795 20.4481 146.61 20.1968 146.368 19.9624C146.125 19.728 145.824 19.5355 145.465 19.3849C145.105 19.2342 144.675 19.1586 144.173 19.1586C143.471 19.1586 142.852 19.3598 142.317 19.7612C141.782 20.1631 141.406 20.7238 141.189 21.4433H147.133C147.116 21.2263 147.045 20.9832 146.92 20.7151ZM132.737 22.1214C132.737 21.2344 132.54 20.5775 132.148 20.1506C131.755 19.7237 131.182 19.5105 130.429 19.5105C129.978 19.5105 129.581 19.6067 129.238 19.7993C128.895 19.9918 128.603 20.2506 128.36 20.5775C128.117 20.9038 127.934 21.2888 127.809 21.7321C127.683 22.1758 127.62 22.6484 127.62 23.1504V29.1755H124.335V16.8745H127.42V18.481H127.62C128.005 17.8621 128.523 17.3727 129.176 17.0126C129.828 16.6526 130.571 16.4726 131.408 16.4726C132.177 16.4726 132.853 16.5982 133.439 16.8495C134.024 17.1002 134.505 17.4559 134.881 17.916C135.257 18.3766 135.542 18.9291 135.734 19.573C135.926 20.2175 136.022 20.9332 136.022 21.7195V29.1755H132.737V22.1214ZM118.592 22.1214C118.592 21.2344 118.395 20.5775 118.002 20.1506C117.609 19.7237 117.037 19.5105 116.284 19.5105C115.833 19.5105 115.435 19.6067 115.093 19.7993C114.75 19.9918 114.457 20.2506 114.215 20.5775C113.973 20.9038 113.789 21.2888 113.663 21.7321C113.538 22.1758 113.475 22.6484 113.475 23.1504V29.1755H110.19V16.8745H113.274V18.481H113.475C113.859 17.8621 114.378 17.3727 115.03 17.0126C115.682 16.6526 116.426 16.4726 117.262 16.4726C118.031 16.4726 118.709 16.5982 119.294 16.8495C119.879 17.1002 120.36 17.4559 120.736 17.916C121.112 18.3766 121.396 18.9291 121.589 19.573C121.781 20.2175 121.877 20.9332 121.877 21.7195V29.1755H118.592V22.1214ZM104.547 27.569H104.346C103.961 28.1885 103.443 28.6779 102.791 29.0374C102.139 29.3974 101.395 29.5774 100.559 29.5774C99.0038 29.5774 97.8456 29.1005 97.0855 28.146C96.3242 27.1922 95.9442 25.9207 95.9442 24.3305V16.8745H99.2295V23.9286C99.2295 24.8161 99.4257 25.4726 99.8189 25.8995C100.211 26.3264 100.785 26.5396 101.537 26.5396C101.988 26.5396 102.385 26.4433 102.728 26.2508C103.071 26.0588 103.364 25.7989 103.606 25.4726C103.849 25.1463 104.032 24.7612 104.158 24.318C104.284 23.8748 104.346 23.4016 104.346 22.8997V16.8745H107.631V29.1755H104.547V27.569ZM73.0872 22.1214C73.0872 21.2676 72.8866 20.6194 72.4853 20.1756C72.084 19.7324 71.5234 19.5105 70.8046 19.5105C70.3533 19.5105 69.952 19.6067 69.6008 19.7993C69.2495 19.9918 68.9526 20.255 68.7107 20.59C68.4681 20.925 68.2844 21.3138 68.1588 21.7571C68.0332 22.2008 67.9706 22.6734 67.9706 23.1754V29.1755H64.6853V11H67.9706V16.2469L67.77 18.481H67.9706C68.3219 17.8953 68.827 17.414 69.4882 17.0377C70.1483 16.6608 70.8883 16.4726 71.7078 16.4726C73.296 16.4726 74.4705 16.9414 75.2312 17.8784C75.9919 18.816 76.3725 20.0962 76.3725 21.7195V29.1755H73.0872V22.1214ZM60.3212 33.2048C59.753 33.7823 59.0712 34.2256 58.2773 34.5356C57.4829 34.845 56.6009 35 55.6314 35C54.762 35 53.9888 34.8869 53.3113 34.6606C52.6343 34.435 52.0449 34.1418 51.543 33.7823C51.0417 33.4223 50.6236 33.0248 50.2892 32.5897C49.9548 32.1541 49.7122 31.7196 49.5616 31.2845L52.6969 30.0293C52.9307 30.6819 53.3151 31.1877 53.8507 31.5477C54.3857 31.9077 54.9795 32.0878 55.6314 32.0878C56.6678 32.0878 57.4872 31.7506 58.0892 31.0779C58.6911 30.404 58.9923 29.4773 58.9923 28.2967V27.4434H58.7917C58.4067 27.9791 57.901 28.4016 57.2741 28.7111C56.6472 29.0211 55.9071 29.1755 55.0545 29.1755C54.3188 29.1755 53.6038 29.0265 52.91 28.7285C52.2162 28.4305 51.6018 28.0036 51.0667 27.4483C50.5311 26.893 50.0967 26.2258 49.7623 25.447C49.4279 24.6677 49.2609 23.7975 49.2609 22.8366C49.2609 21.8756 49.4279 21.0011 49.7623 20.2142C50.0967 19.4267 50.5311 18.7556 51.0667 18.2004C51.6018 17.6451 52.2162 17.2182 52.91 16.9202C53.6038 16.6222 54.3188 16.4726 55.0545 16.4726C55.9071 16.4726 56.6472 16.6276 57.2741 16.9371C57.901 17.247 58.4067 17.6696 58.7917 18.2047H58.9923V16.8745H62.127V28.2967C62.127 29.3343 61.9682 30.2675 61.6507 31.0958C61.3331 31.9246 60.8894 32.6272 60.3212 33.2048ZM58.7161 21.3824C58.5323 20.9549 58.2898 20.5976 57.9891 20.3099C57.6879 20.0228 57.341 19.8047 56.9478 19.6568C56.5553 19.5089 56.1583 19.4349 55.757 19.4349C55.3552 19.4349 54.9626 19.5089 54.5782 19.6568C54.1932 19.8047 53.8507 20.0266 53.5494 20.3224C53.2488 20.6183 53.0062 20.9756 52.8225 21.3949C52.6381 21.8136 52.5462 22.2944 52.5462 22.836C52.5462 23.3788 52.6381 23.8595 52.8225 24.2788C53.0062 24.6976 53.2488 25.0511 53.5494 25.3382C53.8507 25.6259 54.1932 25.844 54.5782 25.9914C54.9626 26.1393 55.3552 26.2133 55.757 26.2133C56.1583 26.2133 56.5553 26.1393 56.9478 25.9914C57.341 25.844 57.6879 25.6259 57.9891 25.3382C58.2898 25.0511 58.5323 24.6976 58.7161 24.2788C58.8999 23.8595 58.9923 23.3788 58.9923 22.836C58.9923 22.2944 58.8999 21.8098 58.7161 21.3824ZM45.6744 15.2174C45.39 15.2174 45.1181 15.1631 44.8593 15.0543C44.6 14.9455 44.3743 14.7949 44.1824 14.6024C43.9899 14.4104 43.8393 14.188 43.7305 13.9373C43.6218 13.686 43.5674 13.4097 43.5674 13.1085C43.5674 12.8072 43.6218 12.5314 43.7305 12.2802C43.8393 12.0289 43.9899 11.8076 44.1824 11.6151C44.3743 11.4226 44.6 11.2719 44.8593 11.1632C45.1181 11.0544 45.39 11 45.6744 11C46.2595 11 46.7613 11.205 47.1795 11.6151C47.5971 12.0251 47.8064 12.5227 47.8064 13.1085C47.8064 13.6947 47.5971 14.1923 47.1795 14.6024C46.7613 15.0124 46.2595 15.2174 45.6744 15.2174ZM38 11H41.2853V29.1755H38V11ZM47.3296 29.1755H44.0443V16.8745H47.3296V29.1755Z" fill="#2D3032"/>
<path d="M93.574 14.188C93.3815 14.1379 93.1433 14.1129 92.8589 14.1129C92.3739 14.1129 91.9895 14.2723 91.7051 14.5899C91.4207 14.908 91.2788 15.3431 91.2788 15.8951V16.8745H94.339V19.6861H91.2788V29.1755H87.9935V19.6861H86.7652H85.0064H82.8431V24.4561C82.8431 24.7406 82.8725 25.0043 82.9312 25.2469C82.9894 25.4894 83.1025 25.6944 83.2699 25.8619C83.5038 26.1295 83.8382 26.2633 84.2732 26.2633C84.507 26.2633 84.7076 26.2383 84.8751 26.1882C85.042 26.1377 85.2258 26.0713 85.4264 25.987L85.6526 29.0749C85.3177 29.1918 85.0045 29.2718 84.7119 29.3137C84.4189 29.355 84.0638 29.3762 83.6462 29.3762C83.0274 29.3762 82.4712 29.2799 81.978 29.0874C81.4848 28.8954 81.071 28.6317 80.7366 28.2967C79.9504 27.5435 79.5578 26.4727 79.5578 25.0837V19.6861H77.4008V16.8745H79.5578V13.1085H82.8431V16.8745H85.0064H86.7652H87.9935V15.6694C87.9935 14.9162 88.1061 14.251 88.3317 13.6735C88.5579 13.0959 88.8793 12.6108 89.2974 12.2176C89.7156 11.8245 90.2087 11.5232 90.7775 11.3138C91.3457 11.1044 91.9726 11 92.6583 11C93.1265 11 93.5615 11.0419 93.9627 11.1256C94.364 11.2094 94.7234 11.3181 95.041 11.4519L94.1128 14.3892C93.9459 14.3054 93.7659 14.2385 93.574 14.188Z" fill="#2D3032"/>
<g clip-path="url(#clip0)">
<path d="M1.72534 24.0547C-0.00118819 22.3282 -0.00118994 19.5289 1.72534 17.8024L18.1377 1.39008C19.7779 -0.250122 22.4372 -0.250119 24.0774 1.39008V1.39008C25.7176 3.03028 25.7176 5.68958 24.0774 7.32978L4.85149 26.5556C4.67884 26.7283 4.39892 26.7283 4.22626 26.5556L1.72534 24.0547Z" fill="#2A8CFF"/>
<path d="M11.7291 22.8042C11.9017 22.6316 12.1816 22.6316 12.3543 22.8042L24.0774 34.5273C25.7176 36.1675 25.7176 38.8268 24.0774 40.467V40.467C22.4372 42.1072 19.7779 42.1072 18.1377 40.467L6.4146 28.7439C6.24195 28.5713 6.24195 28.2914 6.41461 28.1187L11.7291 22.8042Z" fill="#FB005E"/>
<path d="M13.9174 21.2412C13.7447 21.0685 13.7447 20.7886 13.9174 20.6159L18.2138 16.3195C19.812 14.7213 22.4031 14.7213 24.0012 16.3195V16.3195C25.6835 18.0017 25.6835 20.7292 24.0012 22.4115L19.857 26.5556C19.6844 26.7283 19.4045 26.7283 19.2318 26.5556L13.9174 21.2412Z" fill="#FFC108"/>
</g>
<defs>
<clipPath id="clip0">
<rect width="26" height="42" fill="white"/>
</clipPath>
</defs>
</svg>
