<svg width="243" height="140" viewBox="0 0 243 140" fill="none" xmlns="http://www.w3.org/2000/svg">
<ellipse opacity="0.12" cx="121.22" cy="131.463" rx="46.0976" ry="5.12195" fill="#3E4850"/>
<g opacity="0.06">
<path d="M140 32.439H64.0459C61.6107 32.439 59.5718 34.2842 59.3294 36.7073C59.0871 39.1303 57.0482 40.9756 54.613 40.9756H23.9026C20.1309 40.9756 17.0733 44.0331 17.0733 47.8048C17.0733 51.5765 20.1309 54.6341 23.9026 54.6341H49.3022C53.7451 54.6341 57.0051 58.8094 55.9276 63.1197C55.1675 66.1599 52.4359 68.2926 49.3022 68.2926H14.5124C10.7407 68.2926 7.68311 71.3502 7.68311 75.1219C7.68311 78.8936 10.7407 81.9512 14.5124 81.9512H40.9758C44.7475 81.9512 47.8051 85.0087 47.8051 88.7804C47.8051 92.5521 50.8626 95.6097 54.6343 95.6097H191.22C194.991 95.6097 198.049 92.5521 198.049 88.7804C198.049 85.0087 194.991 81.9512 191.22 81.9512H182.683C178.911 81.9512 175.854 78.8936 175.854 75.1219C175.854 71.3502 178.911 68.2926 182.683 68.2926H210C213.772 68.2926 216.829 65.2351 216.829 61.4634C216.829 57.6917 213.772 54.6341 210 54.6341H194.634C191.117 54.6341 189.109 50.6186 191.22 47.8048C193.33 44.991 191.322 40.9756 187.805 40.9756H148.537C146.179 40.9756 144.268 39.0646 144.268 36.7073C144.268 34.3499 142.357 32.439 140 32.439Z" fill="#3E4850"/>
<path d="M213.415 95.6097C209.643 95.6097 206.586 92.5521 206.586 88.7804C206.586 85.0087 209.643 81.9512 213.415 81.9512C217.187 81.9512 220.244 85.0087 220.244 88.7804C220.244 92.5521 217.187 95.6097 213.415 95.6097Z" fill="#3E4850"/>
</g>
<rect x="73.4148" y="11.9515" width="95.6098" height="99.0244" rx="3.41463" fill="white" stroke="#3E4850" stroke-width="3.41463"/>
<path d="M71.7075 15.3661C71.7075 12.5373 74.0007 10.2441 76.8295 10.2441H165.61C168.439 10.2441 170.732 12.5373 170.732 15.3661V23.9027H71.7075V15.3661Z" fill="#3E4850"/>
<circle cx="80.2439" cy="17.073" r="1.70732" fill="white"/>
<circle cx="87.073" cy="17.073" r="1.70732" fill="white"/>
<circle cx="93.9026" cy="17.073" r="1.70732" fill="white"/>
<path d="M121 85.3656C130.429 85.3656 138.073 77.7217 138.073 68.2924C138.073 58.8632 130.429 51.2192 121 51.2192C111.571 51.2192 103.927 58.8632 103.927 68.2924C103.927 77.7217 111.571 85.3656 121 85.3656Z" stroke="#FF4949" stroke-width="3.41463" stroke-linecap="round" stroke-linejoin="round"/>
<path d="M131.709 57.5825L110.29 79.0016" stroke="#FF4949" stroke-width="3.41463" stroke-linecap="round" stroke-linejoin="round"/>
</svg>
