<svg width="20" height="20" viewBox="0 0 20 20" fill="none" xmlns="http://www.w3.org/2000/svg">
<path d="M18.6875 9.80065L15.6924 8.05591V13.1551H19.0152V10.3707C19.0152 10.1358 18.8903 9.91896 18.6875 9.80065Z" fill="#103262"/>
<path d="M5.38086 3.84253H9.77901V7.80086H5.38086V3.84253Z" fill="#0084D7"/>
<path d="M9.7793 3.84253H14.1774V7.80086H9.7793V3.84253Z" fill="#33AFEC"/>
<path d="M14.1772 3.84253H18.5754V7.80086H14.1772V3.84253Z" fill="#54DAFF"/>
<path d="M9.7793 7.80103H14.1774V11.7594H9.7793V7.80103Z" fill="#027AD4"/>
<path d="M9.7793 11.7593H14.1774V15.7176H9.7793V11.7593Z" fill="#0553A4"/>
<path d="M14.1772 7.80103H18.5754V11.7594H14.1772V7.80103Z" fill="#25A2E5"/>
<path d="M14.1772 11.7593H18.5754V15.7176H14.1772V11.7593Z" fill="#0262B8"/>
<path opacity="0.019" d="M5.38086 15.7177H18.5753V10.1047L12.4135 13.6233L5.38086 10.1047V15.7177Z" fill="black"/>
<path opacity="0.038" d="M5.38086 15.7175H18.5753V10.2092L12.4135 13.7277L5.38086 10.2092V15.7175Z" fill="black"/>
<path opacity="0.057" d="M5.38086 15.7178H18.5753V10.3142L12.4135 13.8327L5.38086 10.3142V15.7178Z" fill="black"/>
<path opacity="0.076" d="M5.38086 15.7176H18.5753V10.4187L12.4135 13.9372L5.38086 10.4187V15.7176Z" fill="black"/>
<path opacity="0.095" d="M5.38086 15.7177H18.5753V10.5234L12.4135 14.042L5.38086 10.5234V15.7177Z" fill="black"/>
<path opacity="0.114" d="M5.38086 15.7175H18.5753V10.6284L12.4135 14.1469L5.38086 10.6284V15.7175Z" fill="black"/>
<path opacity="0.133" d="M5.38086 15.7176H18.5753V10.7332L12.4135 14.2517L5.38086 10.7332V15.7176Z" fill="black"/>
<path opacity="0.152" d="M5.38086 15.7176H18.5753V10.8379L12.4135 14.3564L5.38086 10.8379V15.7176Z" fill="black"/>
<path opacity="0.171" d="M5.38086 15.7177H18.5753V10.9426L12.4135 14.4611L5.38086 10.9426V15.7177Z" fill="black"/>
<path opacity="0.191" d="M5.38086 15.7178H18.5753V11.0474L12.4135 14.5659L5.38086 11.0474V15.7178Z" fill="black"/>
<path opacity="0.209" d="M5.38086 15.7176H18.5753V11.1519L12.4135 14.6704L5.38086 11.1519V15.7176Z" fill="black"/>
<path opacity="0.229" d="M5.38086 15.7176H18.5753V11.2566L12.4135 14.7751L5.38086 11.2566V15.7176Z" fill="black"/>
<path opacity="0.248" d="M5.38086 15.7175H18.5753V11.3611L12.4135 14.8796L5.38086 11.3611V15.7175Z" fill="black"/>
<path opacity="0.267" d="M5.38086 15.7175H18.5753V11.4658L12.4135 14.9843L5.38086 11.4658V15.7175Z" fill="black"/>
<path opacity="0.286" d="M5.38086 15.7176H18.5753V11.5706L12.4135 15.0891L5.38086 11.5706V15.7176Z" fill="black"/>
<path opacity="0.305" d="M5.38086 15.7177H18.5753V11.6758L12.4135 15.1943L5.38086 11.6758V15.7177Z" fill="black"/>
<path opacity="0.324" d="M5.38086 15.7177H18.5753V11.7805L12.4135 15.299L5.38086 11.7805V15.7177Z" fill="black"/>
<path opacity="0.343" d="M5.38086 15.7176H18.5753V11.885L12.4135 15.4035L5.38086 11.885V15.7176Z" fill="black"/>
<path opacity="0.362" d="M5.38086 15.7176H18.5753V11.9897L12.4135 15.5083L5.38086 11.9897V15.7176Z" fill="black"/>
<path opacity="0.381" d="M5.38086 15.7177H18.5753V12.0945L12.4135 15.613L5.38086 12.0945V15.7177Z" fill="black"/>
<path opacity="0.4" d="M5.38086 15.7175H18.5753V12.199L12.4135 15.7175L5.38086 12.199V15.7175Z" fill="black"/>
<path d="M6.4545 17.9168H18.1373C18.6229 17.9168 19.0165 17.5258 19.0169 17.0398C19.0183 15.0514 19.0152 10.3708 19.0152 10.3708C19.0152 10.3708 19.0121 10.4685 18.2451 10.9039C17.478 11.3393 6.14795 17.7259 6.14795 17.7259C6.14795 17.7259 6.25087 17.9168 6.4545 17.9168Z" fill="url(#paint0_linear)"/>
<path d="M18.5753 3.84251H5.38086V2.96288C5.38086 2.47689 5.77449 2.08325 6.26049 2.08325H17.6957C18.1817 2.08325 18.5753 2.47689 18.5753 2.96288V3.84251Z" fill="url(#paint1_linear)"/>
<path d="M5.38086 10.4399V17.0372C5.38086 17.5232 5.77449 17.9168 6.26049 17.9168H12.8577H18.1372C18.3404 17.9168 18.5256 17.8455 18.6743 17.7299L5.38086 10.4399Z" fill="url(#paint2_linear)"/>
<path opacity="0.05" d="M9.03968 5.16211H5.38086V15.7177H9.03968C9.93382 15.7177 10.6586 14.9929 10.6586 14.0987V6.78107C10.6586 5.88692 9.93382 5.16211 9.03968 5.16211Z" fill="black"/>
<path opacity="0.07" d="M8.99306 15.2779H5.38086V5.30859H8.99306C9.7513 5.30859 10.3657 5.92302 10.3657 6.68126V13.9052C10.3653 14.6635 9.75086 15.2779 8.99306 15.2779Z" fill="black"/>
<path opacity="0.09" d="M8.946 14.8379H5.38086V5.45532H8.946C9.5679 5.45532 10.0719 5.95935 10.0719 6.58125V13.712C10.0724 14.3339 9.5679 14.8379 8.946 14.8379Z" fill="black"/>
<path d="M8.89958 14.3981H1.86254C1.37654 14.3981 0.98291 14.0045 0.98291 13.5185V6.48144C0.98291 5.99544 1.37654 5.60181 1.86254 5.60181H8.89958C9.38557 5.60181 9.77921 5.99544 9.77921 6.48144V13.5185C9.77921 14.0045 9.38557 14.3981 8.89958 14.3981Z" fill="url(#paint3_linear)"/>
<path d="M5.38095 7.66504C4.01269 7.66504 3.18848 8.71048 3.18848 10C3.18848 11.2896 4.00961 12.335 5.38095 12.335C6.75274 12.335 7.57343 11.2896 7.57343 10.0005C7.57343 8.71048 6.74922 7.66504 5.38095 7.66504ZM5.38095 11.5468C4.60468 11.5468 4.14068 10.8546 4.14068 10.0005C4.14068 9.14634 4.60688 8.45407 5.38095 8.45407C6.15503 8.45407 6.62167 9.14678 6.62167 10.0005C6.62167 10.8541 6.15679 11.5468 5.38095 11.5468Z" fill="white"/>
<defs>
<linearGradient id="paint0_linear" x1="16.7831" y1="10.2451" x2="13.8632" y2="15.2884" gradientUnits="userSpaceOnUse">
<stop stop-color="#31ABEC"/>
<stop offset="1" stop-color="#1582D5"/>
</linearGradient>
<linearGradient id="paint1_linear" x1="5.67334" y1="2.51955" x2="17.821" y2="3.43524" gradientUnits="userSpaceOnUse">
<stop offset="0.042" stop-color="#076DB4"/>
<stop offset="0.85" stop-color="#0461AF"/>
</linearGradient>
<linearGradient id="paint2_linear" x1="12.0454" y1="14.0543" x2="10.0596" y2="17.521" gradientUnits="userSpaceOnUse">
<stop stop-color="#33ACEE"/>
<stop offset="1" stop-color="#1B8EDF"/>
</linearGradient>
<linearGradient id="paint3_linear" x1="1.21601" y1="5.83491" x2="9.51972" y2="14.1386" gradientUnits="userSpaceOnUse">
<stop stop-color="#1784D8"/>
<stop offset="1" stop-color="#0864C5"/>
</linearGradient>
</defs>
</svg>
