<svg width="39" height="38" viewBox="0 0 39 38" fill="none" xmlns="http://www.w3.org/2000/svg">
<path fill-rule="evenodd" clip-rule="evenodd" d="M34.9441 37.9783C37.1467 37.9783 38.946 36.1867 38.946 33.9763V4.02347C38.946 1.82082 37.1545 0.0214844 34.9441 0.0214844H4.99124C2.7886 0.0214844 0.989258 1.81307 0.989258 4.02347V33.9763C0.989258 36.1789 2.78084 37.9783 4.99124 37.9783H34.9441ZM2.88942 4.02347C2.88942 2.86786 3.83563 1.92165 4.99124 1.92165H34.9441C36.0997 1.92165 37.0459 2.86786 37.0459 4.02347V26.2826L31.8738 21.8649C31.3042 21.3783 30.4613 21.3923 29.9082 21.8976L25.1081 26.2826L13.3351 16.0137C12.1621 14.9906 10.3982 15.0468 9.2928 16.1426L2.88942 22.49V4.02347Z" fill="#D5DCE2"/>
<path d="M22.3479 10.3984C22.3479 13.0586 24.5118 15.2302 27.1798 15.2302C29.8478 15.2302 32.0116 13.0586 32.0116 10.3984C32.0116 7.73814 29.84 5.56652 27.1798 5.56652C24.5195 5.56652 22.3479 7.73814 22.3479 10.3984Z" fill="#D5DCE2"/>
</svg>
