<svg width="18" height="18" viewBox="0 0 18 18" fill="none" xmlns="http://www.w3.org/2000/svg">
<path d="M13.8978 4.4718C13.8931 4.43848 13.8764 4.40802 13.8509 4.38608C13.8254 4.36415 13.7928 4.35223 13.7591 4.35256C13.6995 4.35256 12.5696 4.26938 12.5696 4.26938C12.5696 4.26938 11.7835 3.48328 11.6878 3.4001C11.6412 3.36903 11.5878 3.34955 11.5321 3.34328C11.4764 3.33701 11.42 3.34413 11.3676 3.36405C11.3551 3.36405 11.1887 3.41257 10.9267 3.49576C10.6646 2.73323 10.2002 2.0317 9.37944 2.0317H9.30735C9.22132 1.90335 9.10666 1.79673 8.97242 1.72022C8.83817 1.64372 8.688 1.59942 8.53373 1.59082C6.6177 1.59082 5.70127 3.98378 5.41567 5.19551C4.6781 5.42149 4.14294 5.58925 4.08332 5.61143C3.6674 5.74175 3.65492 5.75007 3.60778 6.14659C3.56619 6.43496 2.4834 14.8228 2.4834 14.8228L10.9405 16.4061L15.5157 15.4203C15.5157 15.4203 13.9089 4.55498 13.8978 4.4718ZM10.4581 3.63995C10.2432 3.71065 10.0047 3.77859 9.74407 3.86593V3.70927C9.74872 3.31837 9.69212 2.92915 9.57631 2.55577C10.0047 2.60291 10.2792 3.07845 10.4581 3.63856V3.63995ZM9.05363 2.63895C9.1956 3.05199 9.26 3.48771 9.24357 3.92416V4.00873C8.77912 4.14737 8.27308 4.30543 7.76842 4.4607C8.05403 3.37653 8.58364 2.84137 9.05363 2.63895ZM8.48243 2.10241C8.57242 2.10241 8.65999 2.1316 8.73198 2.18559C8.12473 2.4712 7.45787 3.19768 7.18474 4.64926C6.77991 4.7879 6.38755 4.9002 6.01876 5.00695C6.33903 3.90059 7.11265 2.10241 8.48243 2.10241Z" fill="#95BF47"/>
<path d="M13.766 4.35291C13.7063 4.35291 12.5764 4.26972 12.5764 4.26972C12.5764 4.26972 11.7903 3.48362 11.6946 3.40044C11.6623 3.36913 11.6212 3.34835 11.5768 3.34082L10.9404 16.4092L15.5156 15.4207C15.5156 15.4207 13.9088 4.55532 13.8977 4.48323C13.8915 4.45074 13.8755 4.42089 13.852 4.39762C13.8285 4.37436 13.7985 4.35877 13.766 4.35291V4.35291Z" fill="#5E8E3E"/>
<path d="M9.37392 6.8873L8.81935 8.56625C8.47594 8.40135 8.10084 8.3129 7.71992 8.30699C6.82707 8.30699 6.79241 8.86156 6.79241 9.00852C6.79241 9.77105 8.79163 10.0677 8.79163 11.8659C8.79163 13.2815 7.89877 14.1868 6.68427 14.1868C5.23269 14.1868 4.49512 13.2815 4.49512 13.2815L4.88747 11.9962C4.88747 11.9962 5.64862 12.6506 6.29191 12.6506C6.36879 12.6534 6.44544 12.6407 6.51731 12.6133C6.58918 12.5859 6.65481 12.5443 6.71029 12.491C6.76578 12.4377 6.80998 12.3738 6.84028 12.3031C6.87059 12.2324 6.88637 12.1564 6.88669 12.0794C6.88669 11.0798 5.24517 11.0327 5.24517 9.38978C5.24517 8.00337 6.2323 6.66409 8.24399 6.66409C8.99959 6.66131 9.37392 6.8873 9.37392 6.8873Z" fill="white"/>
</svg>
