<svg width="30" height="30" viewBox="0 0 30 30" fill="none" xmlns="http://www.w3.org/2000/svg">
<g clip-path="url(#clip0)">
<path d="M24.7381 5.69045C24.7143 5.54759 24.5953 5.45235 24.4762 5.45235C24.3572 5.45235 22.2619 5.40474 22.2619 5.40474C22.2619 5.40474 20.5 3.69045 20.3334 3.52378C20.1667 3.35712 19.8095 3.40474 19.6905 3.45235C19.6905 3.45235 19.3572 3.54759 18.8095 3.71426C18.7143 3.40474 18.5714 3.04759 18.381 2.66664C17.7619 1.47616 16.8334 0.833307 15.7381 0.833307C15.6667 0.833307 15.5953 0.833306 15.5 0.857116C15.4762 0.809497 15.4286 0.785687 15.4048 0.738068C14.9286 0.214259 14.3095 -0.0238363 13.5714 -2.68016e-05C12.1429 0.0475922 10.7143 1.0714 9.57145 2.90474C8.76192 4.19045 8.14287 5.8095 7.9524 7.0714C6.30954 7.5714 5.16668 7.92855 5.14287 7.95235C4.30954 8.21426 4.28573 8.23807 4.19049 9.02378C4.11907 9.61902 1.92859 26.4047 1.92859 26.4047L20.1191 29.5476L28 27.5952C27.9762 27.5714 24.7619 5.83331 24.7381 5.69045ZM17.9048 3.99997C17.4762 4.11902 17 4.28569 16.5 4.42854C16.5 3.71426 16.4048 2.69045 16.0714 1.83331C17.1429 2.04759 17.6667 3.26188 17.9048 3.99997ZM15.5238 4.73807C14.5714 5.02378 13.5238 5.35712 12.4762 5.66664C12.7619 4.54759 13.3334 3.42854 14 2.69045C14.2619 2.42854 14.6191 2.11902 15.0238 1.92854C15.4524 2.76188 15.5476 3.92854 15.5238 4.73807ZM13.5953 0.952354C13.9286 0.952354 14.2143 1.02378 14.4524 1.16664C14.0714 1.38093 13.6905 1.66664 13.3334 2.04759C12.4286 3.02378 11.7381 4.54759 11.4524 5.99997C10.5953 6.26188 9.73811 6.52378 8.9524 6.76188C9.4524 4.47616 11.381 1.02378 13.5953 0.952354Z" fill="#95BF47"/>
<path d="M24.4762 5.4524C24.3572 5.4524 22.2619 5.40479 22.2619 5.40479C22.2619 5.40479 20.5 3.6905 20.3334 3.52383C20.2619 3.4524 20.1905 3.42859 20.0953 3.40479V29.5238L27.9762 27.5715C27.9762 27.5715 24.7619 5.83336 24.7381 5.66669C24.7143 5.54764 24.5953 5.4524 24.4762 5.4524Z" fill="#5E8E3E"/>
<path d="M15.7143 9.50001L14.8095 12.9286C14.8095 12.9286 13.7857 12.4524 12.5714 12.5476C10.7857 12.6667 10.7857 13.7857 10.7857 14.0714C10.881 15.5953 14.9048 15.9286 15.1429 19.5238C15.3095 22.3572 13.6429 24.2857 11.2381 24.4286C8.33334 24.6191 6.7381 22.9048 6.7381 22.9048L7.35715 20.2857C7.35715 20.2857 8.95238 21.5 10.2381 21.4048C11.0714 21.3572 11.381 20.6667 11.3571 20.1905C11.2381 18.1905 7.95238 18.3095 7.7381 15.0238C7.57143 12.2619 9.38096 9.45239 13.381 9.2143C14.9286 9.09525 15.7143 9.50001 15.7143 9.50001Z" fill="white"/>
</g>
<defs>
<clipPath id="clip0">
<rect width="30" height="30" fill="white"/>
</clipPath>
</defs>
</svg>
