<svg width="80" height="83" viewBox="0 0 80 83" fill="none" xmlns="http://www.w3.org/2000/svg">
<path fill-rule="evenodd" clip-rule="evenodd" d="M64.4894 18.6251L49.1832 2.85742V15.5504C49.1832 17.2485 50.5598 18.6251 52.2579 18.6251H64.4894Z" fill="#3CC583"/>
<path d="M49.1832 2.85742V14.8586C49.1832 16.9388 50.8695 18.6251 52.9497 18.6251H64.4894M49.1832 2.85742L64.4894 18.6251M49.1832 2.85742H21.2241M64.4894 18.6251V63.2656M64.4894 63.2656C64.4894 66.4215 61.931 68.9799 58.7751 68.9799M64.4894 63.2656V63.2656C64.4894 66.4215 61.931 68.9799 58.7751 68.9799V68.9799M58.7751 68.9799H21.2241M21.2241 68.9799C18.0681 68.9799 15.5098 66.4215 15.5098 63.2656M21.2241 68.9799V68.9799C18.0681 68.9799 15.5098 66.4215 15.5098 63.2656V63.2656M15.5098 63.2656V8.57171M15.5098 8.57171C15.5098 5.4158 18.0681 2.85742 21.2241 2.85742M15.5098 8.57171V8.57171C15.5098 5.4158 18.0681 2.85742 21.2241 2.85742V2.85742" stroke="#3CC583" stroke-width="2.85714" stroke-linecap="round" stroke-linejoin="round"/>
<circle cx="57.142" cy="61.6333" r="17.9592" stroke="#ECFAF3" stroke-width="4.89796"/>
<circle cx="57.142" cy="61.6333" r="15.5102" fill="#3CC583" stroke="#3CC583" stroke-width="2.85714"/>
<path d="M22.04 20.8164H32.6523" stroke="#3CC583" stroke-width="2.85714" stroke-linecap="round" stroke-linejoin="round"/>
<path d="M22.04 29.7959H46.5298" stroke="#3CC583" stroke-width="2.85714" stroke-linecap="round" stroke-linejoin="round"/>
<path d="M22.04 38.7754H46.5298" stroke="#3CC583" stroke-width="2.85714" stroke-linecap="round" stroke-linejoin="round"/>
<path d="M49.7959 61.1871L54.982 66.5303L64.4898 56.7344" stroke="#DDF6EA" stroke-width="2.85714" stroke-linecap="round" stroke-linejoin="round"/>
</svg>
