<svg width="98" height="98" viewBox="0 0 98 98" fill="none" xmlns="http://www.w3.org/2000/svg">
<path d="M26 1.75C21.1675 1.75 17.25 5.66751 17.25 10.5V77.5C17.25 82.3325 21.1675 86.25 26 86.25H48.1992C47.6636 85.127 47.2092 83.9578 46.8438 82.75H26C23.1005 82.75 20.75 80.3995 20.75 77.5V10.5C20.75 7.60051 23.1005 5.25 26 5.25H58.5V19.0489C58.5 22.0956 60.9698 24.5654 64.0165 24.5654H77.25V51.5674C78.4578 51.9328 79.627 52.3872 80.75 52.9228V22.8154C80.75 22.3603 80.5727 21.923 80.2557 21.5965L61.5057 2.28108C61.1761 1.94158 60.7231 1.75 60.25 1.75H26Z" fill="#0085FF"/>
<path d="M25.25 25.5C25.25 24.5335 26.0335 23.75 27 23.75H40C40.9665 23.75 41.75 24.5335 41.75 25.5C41.75 26.4665 40.9665 27.25 40 27.25H27C26.0335 27.25 25.25 26.4665 25.25 25.5Z" fill="#0085FF"/>
<path d="M27 34.75C26.0335 34.75 25.25 35.5335 25.25 36.5C25.25 37.4665 26.0335 38.25 27 38.25H57C57.9665 38.25 58.75 37.4665 58.75 36.5C58.75 35.5335 57.9665 34.75 57 34.75H27Z" fill="#0085FF"/>
<path d="M27 45.75C26.0335 45.75 25.25 46.5335 25.25 47.5C25.25 48.4665 26.0335 49.25 27 49.25H57C57.9665 49.25 58.75 48.4665 58.75 47.5C58.75 46.5335 57.9665 45.75 57 45.75H27Z" fill="#0085FF"/>
<path d="M71 55C59.402 55 50 64.402 50 76C50 87.598 59.402 97 71 97C82.598 97 92 87.598 92 76C92 64.402 82.598 55 71 55Z" fill="#0085FF"/>
</svg>
