<svg width="80" height="80" viewBox="0 0 80 80" fill="none" xmlns="http://www.w3.org/2000/svg">
<path fill-rule="evenodd" clip-rule="evenodd" d="M11.4898 6.93896C9.01015 6.93896 7 8.94911 7 11.4288V68.5716C7 71.0513 9.01015 73.0614 11.4898 73.0614H52.8845C52.4042 72.2899 51.9934 71.4707 51.6609 70.6124H11.4898C10.3627 70.6124 9.44898 69.6987 9.44898 68.5716V16.3268H70.6735V51.5995C71.5317 51.932 72.351 52.3427 73.1224 52.823V11.4288C73.1224 8.94912 71.1123 6.93896 68.6326 6.93896H11.4898ZM13.8789 11.8344C13.8789 12.5106 13.3307 13.0588 12.6544 13.0588C11.9782 13.0588 11.4299 12.5106 11.4299 11.8344C11.4299 11.1581 11.9782 10.6099 12.6544 10.6099C13.3307 10.6099 13.8789 11.1581 13.8789 11.8344ZM17.5524 13.0588C18.2286 13.0588 18.7769 12.5106 18.7769 11.8344C18.7769 11.1581 18.2286 10.6099 17.5524 10.6099C16.8761 10.6099 16.3279 11.1581 16.3279 11.8344C16.3279 12.5106 16.8761 13.0588 17.5524 13.0588ZM23.6748 11.8344C23.6748 12.5106 23.1266 13.0588 22.4503 13.0588C21.7741 13.0588 21.2258 12.5106 21.2258 11.8344C21.2258 11.1581 21.7741 10.6099 22.4503 10.6099C23.1266 10.6099 23.6748 11.1581 23.6748 11.8344Z" fill="#0084FF"/>
<path d="M26.409 55.7143H28.1048L29.0997 52.0739H29.1713L30.1662 55.7143H31.8659L33.4373 49.9258H31.8169L30.935 53.7923H30.886L29.9364 49.9258H28.3423L27.4077 53.8149H27.3549L26.458 49.9258H24.8337L26.409 55.7143Z" fill="#0084FF"/>
<path d="M35.8601 55.7143H37.556L38.5509 52.0739H38.6225L39.6174 55.7143H41.317L42.8885 49.9258H41.268L40.3861 53.7923H40.3372L39.3875 49.9258H37.7934L36.8588 53.8149H36.806L35.9091 49.9258H34.2849L35.8601 55.7143Z" fill="#0084FF"/>
<path d="M47.0071 55.7143H45.3112L43.736 49.9258H45.3602L46.2571 53.8149H46.3099L47.2445 49.9258H48.8386L49.7883 53.7923H49.8373L50.7191 49.9258H52.3396L50.7681 55.7143H49.0685L48.0736 52.0739H48.002L47.0071 55.7143Z" fill="#0084FF"/>
<path d="M53.7712 55.8123C54.2536 55.8123 54.6719 55.409 54.6757 54.9078C54.6719 54.4141 54.2536 54.0109 53.7712 54.0109C53.2738 54.0109 52.863 54.4141 52.8668 54.9078C52.863 55.409 53.2738 55.8123 53.7712 55.8123Z" fill="#0084FF"/>
<path fill-rule="evenodd" clip-rule="evenodd" d="M39.9796 25.3506C35.4956 25.3506 31.8606 28.9856 31.8606 33.4696C31.8606 37.9537 35.4956 41.5887 39.9796 41.5887C44.4637 41.5887 48.0987 37.9537 48.0987 33.4696C48.0987 28.9856 44.4637 25.3506 39.9796 25.3506ZM33.1619 32.8335C33.4381 29.8346 35.6483 27.3959 38.5339 26.7756C37.2853 28.5584 36.5378 30.6512 36.3795 32.8335H33.1619ZM43.5797 32.8335C43.4214 30.6512 42.6738 28.5584 41.4253 26.7756C44.3109 27.3958 46.5211 29.8346 46.7974 32.8335H43.5797ZM39.9796 26.9655C41.3202 28.6462 42.1299 30.6896 42.3038 32.8335H37.6554C37.8293 30.6896 38.639 28.6462 39.9796 26.9655ZM39.9796 39.9736C41.3202 38.2929 42.1299 36.2495 42.3038 34.1056H37.6554C37.8293 36.2495 38.639 38.2929 39.9796 39.9736ZM33.1618 34.1056H36.3795C36.5378 36.288 37.2854 38.3808 38.534 40.1637C35.6483 39.5434 33.4381 37.1046 33.1618 34.1056ZM43.5797 34.1056C43.4214 36.288 42.6738 38.3808 41.4252 40.1637C44.3109 39.5435 46.5212 37.1046 46.7974 34.1056H43.5797Z" fill="#0084FF"/>
</svg>
