<svg width="30" height="30" viewBox="0 0 30 30" fill="none" xmlns="http://www.w3.org/2000/svg">
<path d="M18.25 15.0057C18.2493 15.9717 18.0727 16.8965 17.7508 17.7502C16.8972 18.0724 15.972 18.2494 15.0056 18.2501H14.9944C14.0285 18.2494 13.1036 18.0729 12.25 17.7509C11.928 16.8974 11.7506 15.9722 11.75 15.0059V14.9947C11.7506 14.0286 11.9276 13.1038 12.2491 12.2502C13.103 11.9282 14.0281 11.751 14.9944 11.7503H15.0056C15.972 11.751 16.8972 11.9282 17.7507 12.2502C18.0725 13.1039 18.2493 14.0287 18.2499 14.9947V15.006V15.0058L18.25 15.0057ZM27.8193 12.8334H20.2308L25.5966 7.4676C25.1753 6.87597 24.7054 6.3205 24.1918 5.80698L24.1915 5.80646C23.6784 5.29344 23.1235 4.82403 22.5325 4.40312L17.1667 9.76887V2.18083C16.453 2.0609 15.7305 2.00042 15.0068 2L14.993 2C14.2693 2.00039 13.5469 2.06083 12.8333 2.1807V9.76925L7.46754 4.40351C6.87623 4.82457 6.32105 5.29419 5.80777 5.8075L5.80581 5.80926C5.29324 6.32215 4.82425 6.87683 4.4037 7.46754L9.76945 12.8333H2.1807C2.1807 12.8333 2.00026 14.2587 2 14.9952V15.0046C2.00027 15.7291 2.06071 16.4524 2.1807 17.1669H9.76919L4.40344 22.5327C5.24725 23.7174 6.28284 24.7529 7.46754 25.5968L12.8333 20.2311V27.8193C13.5463 27.939 14.2679 27.9995 14.9909 28H15.0095C15.7324 27.9994 16.4539 27.939 17.1668 27.8193V20.2307L22.5326 25.5965C23.1237 25.1756 23.6787 24.7061 24.1919 24.193L24.1932 24.192C24.7062 23.6788 25.1756 23.1238 25.5966 22.5328L20.2308 17.1669H27.8193C27.939 16.454 27.9994 15.7324 28 15.0096V14.9909C27.9994 14.268 27.939 13.5464 27.8193 12.8335V12.8334Z" fill="#FF4A00"/>
</svg>
